<mxfile host="Electron" modified="2024-01-29T08:40:55.226Z" agent="Mozilla/5.0 (Windows NT 10.0; Win64; x64) AppleWebKit/537.36 (KHTML, like Gecko) draw.io/22.1.21 Chrome/120.0.6099.109 Electron/28.1.0 Safari/537.36" etag="J8S_UVQSo3FFs7KkL3tL" version="22.1.21" type="device">
  <diagram name="PÃ¡gina-1" id="o-XkD8OzSfUzeFlbS5Ds">
    <mxGraphModel dx="1195" dy="737" grid="1" gridSize="10" guides="1" tooltips="1" connect="1" arrows="1" fold="1" page="1" pageScale="1" pageWidth="827" pageHeight="1169" math="0" shadow="0">
      <root>
        <mxCell id="0" />
        <mxCell id="1" parent="0" />
        <mxCell id="ZJuc8aod3CiUTQ_wo23z-3215" value="Acceder al sistema" style="ellipse;whiteSpace=wrap;html=1;" parent="1" vertex="1">
          <mxGeometry x="260" y="470" width="120" height="80" as="geometry" />
        </mxCell>
        <mxCell id="ZJuc8aod3CiUTQ_wo23z-3216" value="Publicar circular" style="ellipse;whiteSpace=wrap;html=1;" parent="1" vertex="1">
          <mxGeometry x="260" y="580" width="120" height="80" as="geometry" />
        </mxCell>
        <mxCell id="ZJuc8aod3CiUTQ_wo23z-3217" value="&amp;nbsp;para borrarla" style="ellipse;whiteSpace=wrap;html=1;" parent="1" vertex="1">
          <mxGeometry x="460" y="650" width="120" height="80" as="geometry" />
        </mxCell>
        <mxCell id="ZJuc8aod3CiUTQ_wo23z-3218" value="para modificarla" style="ellipse;whiteSpace=wrap;html=1;" parent="1" vertex="1">
          <mxGeometry x="460" y="770" width="120" height="80" as="geometry" />
        </mxCell>
        <mxCell id="ZJuc8aod3CiUTQ_wo23z-3243" style="edgeStyle=orthogonalEdgeStyle;rounded=0;orthogonalLoop=1;jettySize=auto;html=1;entryX=0;entryY=0.5;entryDx=0;entryDy=0;" parent="1" source="ZJuc8aod3CiUTQ_wo23z-3226" target="ZJuc8aod3CiUTQ_wo23z-3215" edge="1">
          <mxGeometry relative="1" as="geometry" />
        </mxCell>
        <mxCell id="ZJuc8aod3CiUTQ_wo23z-3244" style="edgeStyle=orthogonalEdgeStyle;rounded=0;orthogonalLoop=1;jettySize=auto;html=1;entryX=0;entryY=0.5;entryDx=0;entryDy=0;" parent="1" source="ZJuc8aod3CiUTQ_wo23z-3226" target="ZJuc8aod3CiUTQ_wo23z-3216" edge="1">
          <mxGeometry relative="1" as="geometry" />
        </mxCell>
        <mxCell id="ZJuc8aod3CiUTQ_wo23z-3245" style="edgeStyle=orthogonalEdgeStyle;rounded=0;orthogonalLoop=1;jettySize=auto;html=1;entryX=0;entryY=0.5;entryDx=0;entryDy=0;" parent="1" source="ZJuc8aod3CiUTQ_wo23z-3226" target="ZJuc8aod3CiUTQ_wo23z-3242" edge="1">
          <mxGeometry relative="1" as="geometry" />
        </mxCell>
        <mxCell id="ZJuc8aod3CiUTQ_wo23z-3226" value="Responsable" style="shape=umlActor;verticalLabelPosition=bottom;verticalAlign=top;html=1;outlineConnect=0;" parent="1" vertex="1">
          <mxGeometry x="110" y="580" width="30" height="60" as="geometry" />
        </mxCell>
        <mxCell id="ZJuc8aod3CiUTQ_wo23z-3251" style="edgeStyle=orthogonalEdgeStyle;rounded=0;orthogonalLoop=1;jettySize=auto;html=1;entryX=0;entryY=0.5;entryDx=0;entryDy=0;" parent="1" source="ZJuc8aod3CiUTQ_wo23z-3227" target="ZJuc8aod3CiUTQ_wo23z-3246" edge="1">
          <mxGeometry relative="1" as="geometry" />
        </mxCell>
        <mxCell id="ZJuc8aod3CiUTQ_wo23z-3252" style="edgeStyle=orthogonalEdgeStyle;rounded=0;orthogonalLoop=1;jettySize=auto;html=1;entryX=0;entryY=0.5;entryDx=0;entryDy=0;" parent="1" source="ZJuc8aod3CiUTQ_wo23z-3227" target="ZJuc8aod3CiUTQ_wo23z-3230" edge="1">
          <mxGeometry relative="1" as="geometry" />
        </mxCell>
        <mxCell id="ZJuc8aod3CiUTQ_wo23z-3227" value="Administrativo" style="shape=umlActor;verticalLabelPosition=bottom;verticalAlign=top;html=1;outlineConnect=0;" parent="1" vertex="1">
          <mxGeometry x="110" y="290" width="30" height="60" as="geometry" />
        </mxCell>
        <mxCell id="ZJuc8aod3CiUTQ_wo23z-3230" value="Suscribirse" style="ellipse;whiteSpace=wrap;html=1;" parent="1" vertex="1">
          <mxGeometry x="330" y="160" width="120" height="80" as="geometry" />
        </mxCell>
        <mxCell id="ZJuc8aod3CiUTQ_wo23z-3242" value="Buscar circular&amp;nbsp;" style="ellipse;whiteSpace=wrap;html=1;" parent="1" vertex="1">
          <mxGeometry x="260" y="690" width="120" height="80" as="geometry" />
        </mxCell>
        <mxCell id="ZJuc8aod3CiUTQ_wo23z-3246" value="Buscar por fecha" style="ellipse;whiteSpace=wrap;html=1;" parent="1" vertex="1">
          <mxGeometry x="270" y="360" width="120" height="80" as="geometry" />
        </mxCell>
        <mxCell id="ZJuc8aod3CiUTQ_wo23z-3247" value="Ver detalle circular" style="ellipse;whiteSpace=wrap;html=1;" parent="1" vertex="1">
          <mxGeometry x="550" y="420" width="120" height="80" as="geometry" />
        </mxCell>
        <mxCell id="ZJuc8aod3CiUTQ_wo23z-3248" value="Buscar en detalle" style="ellipse;whiteSpace=wrap;html=1;" parent="1" vertex="1">
          <mxGeometry x="550" y="260" width="120" height="80" as="geometry" />
        </mxCell>
        <mxCell id="ZJuc8aod3CiUTQ_wo23z-3249" value="&amp;lt;&amp;lt;extend&amp;gt;&amp;gt;" style="html=1;verticalAlign=bottom;labelBackgroundColor=none;endArrow=open;endFill=0;dashed=1;rounded=0;entryX=1;entryY=0.5;entryDx=0;entryDy=0;exitX=0;exitY=0.5;exitDx=0;exitDy=0;" parent="1" source="ZJuc8aod3CiUTQ_wo23z-3248" target="ZJuc8aod3CiUTQ_wo23z-3246" edge="1">
          <mxGeometry width="160" relative="1" as="geometry">
            <mxPoint x="360" y="280" as="sourcePoint" />
            <mxPoint x="520" y="280" as="targetPoint" />
          </mxGeometry>
        </mxCell>
        <mxCell id="ZJuc8aod3CiUTQ_wo23z-3250" value="&amp;lt;&amp;lt;extend&amp;gt;&amp;gt;" style="html=1;verticalAlign=bottom;labelBackgroundColor=none;endArrow=open;endFill=0;dashed=1;rounded=0;entryX=1;entryY=0.5;entryDx=0;entryDy=0;exitX=0;exitY=0.5;exitDx=0;exitDy=0;" parent="1" source="ZJuc8aod3CiUTQ_wo23z-3247" target="ZJuc8aod3CiUTQ_wo23z-3246" edge="1">
          <mxGeometry width="160" relative="1" as="geometry">
            <mxPoint x="560" y="310" as="sourcePoint" />
            <mxPoint x="400" y="410" as="targetPoint" />
          </mxGeometry>
        </mxCell>
      </root>
    </mxGraphModel>
  </diagram>
</mxfile>
